<?xml version="1.0" standalone="no"?>
<!DOCTYPE svg PUBLIC "-//W3C//DTD SVG 20010904//EN"
 "http://www.w3.org/TR/2001/REC-SVG-20010904/DTD/svg10.dtd">
<svg version="1.0" xmlns="http://www.w3.org/2000/svg"
 width="128.000000pt" height="128.000000pt" viewBox="0 0 128.000000 128.000000"
 preserveAspectRatio="xMidYMid meet">
<metadata>
Created by potrace 1.11, written by Peter Selinger 2001-2013
</metadata>
<g transform="translate(0.000000,128.000000) scale(0.100000,-0.100000)"
fill="#000000" stroke="none">
<path d="M10 992 c-15 -5 -12 -22 3 -22 17 0 57 -43 90 -95 13 -23 84 -173
157 -335 72 -162 135 -298 139 -302 4 -4 58 96 121 222 62 127 117 227 121
223 3 -5 48 -105 99 -223 51 -118 96 -219 100 -223 4 -4 22 25 40 65 19 40 53
116 78 168 24 52 50 109 57 125 122 270 174 356 229 380 37 16 34 17 -114 17
-152 0 -150 0 -118 -18 57 -30 73 -113 43 -224 -18 -67 -85 -230 -95 -230 -11
0 -150 340 -157 383 -6 40 15 77 45 77 9 0 12 3 8 7 -9 9 -396 10 -396 2 0 -4
11 -10 24 -13 32 -8 54 -40 105 -159 l43 -98 -54 -109 c-29 -60 -55 -110 -58
-110 -9 0 -180 405 -180 427 0 12 10 31 22 43 12 11 19 20 15 21 -22 3 -359 3
-367 1z"/>
</g>
</svg>
